<svg id="visual" viewBox="0 0 900 600" width="900" height="600" xmlns="http://www.w3.org/2000/svg" xmlns:xlink="http://www.w3.org/1999/xlink" version="1.1"><rect x="0" y="0" width="900" height="600" fill="#1e0232"></rect><path d="M0 269L9.3 286.5C18.7 304 37.3 339 56.2 360.3C75 381.7 94 389.3 112.8 375.3C131.7 361.3 150.3 325.7 169 304.5C187.7 283.3 206.3 276.7 225 270.2C243.7 263.7 262.3 257.3 281.2 273.2C300 289 319 327 337.8 351C356.7 375 375.3 385 394 383C412.7 381 431.3 367 450 352.7C468.7 338.3 487.3 323.7 506.2 320.7C525 317.7 544 326.3 562.8 331.5C581.7 336.7 600.3 338.3 619 328.7C637.7 319 656.3 298 675 283.7C693.7 269.3 712.3 261.7 731.2 256C750 250.3 769 246.7 787.8 244.8C806.7 243 825.3 243 844 254.5C862.7 266 881.3 289 890.7 300.5L900 312L900 601L890.7 601C881.3 601 862.7 601 844 601C825.3 601 806.7 601 787.8 601C769 601 750 601 731.2 601C712.3 601 693.7 601 675 601C656.3 601 637.7 601 619 601C600.3 601 581.7 601 562.8 601C544 601 525 601 506.2 601C487.3 601 468.7 601 450 601C431.3 601 412.7 601 394 601C375.3 601 356.7 601 337.8 601C319 601 300 601 281.2 601C262.3 601 243.7 601 225 601C206.3 601 187.7 601 169 601C150.3 601 131.7 601 112.8 601C94 601 75 601 56.2 601C37.3 601 18.7 601 9.3 601L0 601Z" fill="#9900ff"></path><path d="M0 382L9.3 378.7C18.7 375.3 37.3 368.7 56.2 372.3C75 376 94 390 112.8 383.5C131.7 377 150.3 350 169 335.2C187.7 320.3 206.3 317.7 225 329.7C243.7 341.7 262.3 368.3 281.2 368.7C300 369 319 343 337.8 346.5C356.7 350 375.3 383 394 392C412.7 401 431.3 386 450 384.8C468.7 383.7 487.3 396.3 506.2 399.3C525 402.3 544 395.7 562.8 380.2C581.7 364.7 600.3 340.3 619 342.5C637.7 344.7 656.3 373.3 675 370.7C693.7 368 712.3 334 731.2 336.5C750 339 769 378 787.8 384.7C806.7 391.3 825.3 365.7 844 349.3C862.7 333 881.3 326 890.7 322.5L900 319L900 601L890.7 601C881.3 601 862.7 601 844 601C825.3 601 806.7 601 787.8 601C769 601 750 601 731.2 601C712.3 601 693.7 601 675 601C656.3 601 637.7 601 619 601C600.3 601 581.7 601 562.8 601C544 601 525 601 506.2 601C487.3 601 468.7 601 450 601C431.3 601 412.7 601 394 601C375.3 601 356.7 601 337.8 601C319 601 300 601 281.2 601C262.3 601 243.7 601 225 601C206.3 601 187.7 601 169 601C150.3 601 131.7 601 112.8 601C94 601 75 601 56.2 601C37.3 601 18.7 601 9.3 601L0 601Z" fill="#8b00e8"></path><path d="M0 469L9.3 449.2C18.7 429.3 37.3 389.7 56.2 367.3C75 345 94 340 112.8 337.8C131.7 335.7 150.3 336.3 169 359.2C187.7 382 206.3 427 225 429C243.7 431 262.3 390 281.2 379.8C300 369.7 319 390.3 337.8 394.7C356.7 399 375.3 387 394 373.7C412.7 360.3 431.3 345.7 450 341.5C468.7 337.3 487.3 343.7 506.2 353.8C525 364 544 378 562.8 387.3C581.7 396.7 600.3 401.3 619 399.2C637.7 397 656.3 388 675 378.3C693.7 368.7 712.3 358.3 731.2 354.8C750 351.3 769 354.7 787.8 373.8C806.7 393 825.3 428 844 430.5C862.7 433 881.3 403 890.7 388L900 373L900 601L890.7 601C881.3 601 862.7 601 844 601C825.3 601 806.7 601 787.8 601C769 601 750 601 731.2 601C712.3 601 693.7 601 675 601C656.3 601 637.7 601 619 601C600.3 601 581.7 601 562.8 601C544 601 525 601 506.2 601C487.3 601 468.7 601 450 601C431.3 601 412.7 601 394 601C375.3 601 356.7 601 337.8 601C319 601 300 601 281.2 601C262.3 601 243.7 601 225 601C206.3 601 187.7 601 169 601C150.3 601 131.7 601 112.8 601C94 601 75 601 56.2 601C37.3 601 18.7 601 9.3 601L0 601Z" fill="#7e00d1"></path><path d="M0 413L9.3 426C18.7 439 37.3 465 56.2 471.3C75 477.7 94 464.3 112.8 449.3C131.7 434.3 150.3 417.7 169 409.8C187.7 402 206.3 403 225 410.8C243.7 418.7 262.3 433.3 281.2 443.2C300 453 319 458 337.8 451.8C356.7 445.7 375.3 428.3 394 415.7C412.7 403 431.3 395 450 409.7C468.7 424.3 487.3 461.7 506.2 478.2C525 494.7 544 490.3 562.8 490.3C581.7 490.3 600.3 494.7 619 496.5C637.7 498.3 656.3 497.7 675 495.2C693.7 492.7 712.3 488.3 731.2 478.2C750 468 769 452 787.8 440.5C806.7 429 825.3 422 844 426.8C862.7 431.7 881.3 448.3 890.7 456.7L900 465L900 601L890.7 601C881.3 601 862.7 601 844 601C825.3 601 806.7 601 787.8 601C769 601 750 601 731.2 601C712.3 601 693.7 601 675 601C656.3 601 637.7 601 619 601C600.3 601 581.7 601 562.8 601C544 601 525 601 506.2 601C487.3 601 468.7 601 450 601C431.3 601 412.7 601 394 601C375.3 601 356.7 601 337.8 601C319 601 300 601 281.2 601C262.3 601 243.7 601 225 601C206.3 601 187.7 601 169 601C150.3 601 131.7 601 112.8 601C94 601 75 601 56.2 601C37.3 601 18.7 601 9.3 601L0 601Z" fill="#7000bb"></path><path d="M0 525L9.3 524.7C18.7 524.3 37.3 523.7 56.2 521.5C75 519.3 94 515.7 112.8 503.8C131.7 492 150.3 472 169 460.8C187.7 449.7 206.3 447.3 225 456.3C243.7 465.3 262.3 485.7 281.2 490C300 494.3 319 482.7 337.8 488.5C356.7 494.3 375.3 517.7 394 530C412.7 542.3 431.3 543.7 450 528.8C468.7 514 487.3 483 506.2 469.7C525 456.3 544 460.7 562.8 475.7C581.7 490.7 600.3 516.3 619 516C637.7 515.7 656.3 489.3 675 474.3C693.7 459.3 712.3 455.7 731.2 457.3C750 459 769 466 787.8 472.8C806.7 479.7 825.3 486.3 844 497.7C862.7 509 881.3 525 890.7 533L900 541L900 601L890.7 601C881.3 601 862.7 601 844 601C825.3 601 806.7 601 787.8 601C769 601 750 601 731.2 601C712.3 601 693.7 601 675 601C656.3 601 637.7 601 619 601C600.3 601 581.7 601 562.8 601C544 601 525 601 506.2 601C487.3 601 468.7 601 450 601C431.3 601 412.7 601 394 601C375.3 601 356.7 601 337.8 601C319 601 300 601 281.2 601C262.3 601 243.7 601 225 601C206.3 601 187.7 601 169 601C150.3 601 131.7 601 112.8 601C94 601 75 601 56.2 601C37.3 601 18.7 601 9.3 601L0 601Z" fill="#6300a5"></path><path d="M0 551L9.3 543.5C18.7 536 37.3 521 56.2 525.5C75 530 94 554 112.8 557C131.7 560 150.3 542 169 539.5C187.7 537 206.3 550 225 553C243.7 556 262.3 549 281.2 539.5C300 530 319 518 337.8 519C356.7 520 375.3 534 394 544.2C412.7 554.3 431.3 560.7 450 564.7C468.7 568.7 487.3 570.3 506.2 561.7C525 553 544 534 562.8 532.8C581.7 531.7 600.3 548.3 619 546C637.7 543.7 656.3 522.3 675 521C693.7 519.7 712.3 538.3 731.2 551.7C750 565 769 573 787.8 567.2C806.7 561.3 825.3 541.7 844 538.5C862.7 535.3 881.3 548.7 890.7 555.3L900 562L900 601L890.7 601C881.3 601 862.7 601 844 601C825.3 601 806.7 601 787.8 601C769 601 750 601 731.2 601C712.3 601 693.7 601 675 601C656.3 601 637.7 601 619 601C600.3 601 581.7 601 562.8 601C544 601 525 601 506.2 601C487.3 601 468.7 601 450 601C431.3 601 412.7 601 394 601C375.3 601 356.7 601 337.8 601C319 601 300 601 281.2 601C262.3 601 243.7 601 225 601C206.3 601 187.7 601 169 601C150.3 601 131.7 601 112.8 601C94 601 75 601 56.2 601C37.3 601 18.7 601 9.3 601L0 601Z" fill="#560090"></path></svg>