<svg id="visual" viewBox="0 0 900 600" width="900" height="600" xmlns="http://www.w3.org/2000/svg" xmlns:xlink="http://www.w3.org/1999/xlink" version="1.1"><rect x="0" y="0" width="900" height="600" fill="#1e0232"></rect><path d="M0 116L47 116L47 211L95 211L95 216L142 216L142 183L189 183L189 53L237 53L237 142L284 142L284 161L332 161L332 147L379 147L379 187L426 187L426 194L474 194L474 116L521 116L521 63L568 63L568 79L616 79L616 185L663 185L663 87L711 87L711 159L758 159L758 77L805 77L805 122L853 122L853 123L900 123L900 217L900 601L900 601L853 601L853 601L805 601L805 601L758 601L758 601L711 601L711 601L663 601L663 601L616 601L616 601L568 601L568 601L521 601L521 601L474 601L474 601L426 601L426 601L379 601L379 601L332 601L332 601L284 601L284 601L237 601L237 601L189 601L189 601L142 601L142 601L95 601L95 601L47 601L47 601L0 601Z" fill="#9900ff"></path><path d="M0 242L47 242L47 212L95 212L95 261L142 261L142 259L189 259L189 269L237 269L237 212L284 212L284 205L332 205L332 287L379 287L379 203L426 203L426 262L474 262L474 231L521 231L521 178L568 178L568 238L616 238L616 172L663 172L663 196L711 196L711 165L758 165L758 236L805 236L805 123L853 123L853 153L900 153L900 238L900 601L900 601L853 601L853 601L805 601L805 601L758 601L758 601L711 601L711 601L663 601L663 601L616 601L616 601L568 601L568 601L521 601L521 601L474 601L474 601L426 601L426 601L379 601L379 601L332 601L332 601L284 601L284 601L237 601L237 601L189 601L189 601L142 601L142 601L95 601L95 601L47 601L47 601L0 601Z" fill="#8b00e8"></path><path d="M0 209L47 209L47 280L95 280L95 238L142 238L142 224L189 224L189 316L237 316L237 325L284 325L284 286L332 286L332 308L379 308L379 286L426 286L426 247L474 247L474 205L521 205L521 282L568 282L568 228L616 228L616 324L663 324L663 337L711 337L711 288L758 288L758 270L805 270L805 333L853 333L853 265L900 265L900 320L900 601L900 601L853 601L853 601L805 601L805 601L758 601L758 601L711 601L711 601L663 601L663 601L616 601L616 601L568 601L568 601L521 601L521 601L474 601L474 601L426 601L426 601L379 601L379 601L332 601L332 601L284 601L284 601L237 601L237 601L189 601L189 601L142 601L142 601L95 601L95 601L47 601L47 601L0 601Z" fill="#7e00d1"></path><path d="M0 367L47 367L47 303L95 303L95 364L142 364L142 392L189 392L189 330L237 330L237 322L284 322L284 297L332 297L332 328L379 328L379 345L426 345L426 293L474 293L474 355L521 355L521 315L568 315L568 362L616 362L616 424L663 424L663 407L711 407L711 414L758 414L758 345L805 345L805 355L853 355L853 337L900 337L900 359L900 601L900 601L853 601L853 601L805 601L805 601L758 601L758 601L711 601L711 601L663 601L663 601L616 601L616 601L568 601L568 601L521 601L521 601L474 601L474 601L426 601L426 601L379 601L379 601L332 601L332 601L284 601L284 601L237 601L237 601L189 601L189 601L142 601L142 601L95 601L95 601L47 601L47 601L0 601Z" fill="#7000bb"></path><path d="M0 419L47 419L47 405L95 405L95 440L142 440L142 435L189 435L189 459L237 459L237 378L284 378L284 494L332 494L332 415L379 415L379 386L426 386L426 418L474 418L474 403L521 403L521 418L568 418L568 413L616 413L616 377L663 377L663 396L711 396L711 393L758 393L758 454L805 454L805 489L853 489L853 413L900 413L900 374L900 601L900 601L853 601L853 601L805 601L805 601L758 601L758 601L711 601L711 601L663 601L663 601L616 601L616 601L568 601L568 601L521 601L521 601L474 601L474 601L426 601L426 601L379 601L379 601L332 601L332 601L284 601L284 601L237 601L237 601L189 601L189 601L142 601L142 601L95 601L95 601L47 601L47 601L0 601Z" fill="#6300a5"></path><path d="M0 479L47 479L47 555L95 555L95 492L142 492L142 526L189 526L189 508L237 508L237 504L284 504L284 482L332 482L332 564L379 564L379 556L426 556L426 539L474 539L474 510L521 510L521 509L568 509L568 515L616 515L616 543L663 543L663 509L711 509L711 534L758 534L758 529L805 529L805 555L853 555L853 471L900 471L900 561L900 601L900 601L853 601L853 601L805 601L805 601L758 601L758 601L711 601L711 601L663 601L663 601L616 601L616 601L568 601L568 601L521 601L521 601L474 601L474 601L426 601L426 601L379 601L379 601L332 601L332 601L284 601L284 601L237 601L237 601L189 601L189 601L142 601L142 601L95 601L95 601L47 601L47 601L0 601Z" fill="#560090"></path></svg>